<svg width="20" height="20" viewBox="0 0 20 20" fill="none" xmlns="http://www.w3.org/2000/svg">
<path d="M9.60667 17.5467C8.52153 17.5467 7.49595 17.3381 6.52992 16.921C5.56388 16.5044 4.72039 15.9354 3.99944 15.2139C3.27796 14.4929 2.70892 13.6494 2.29234 12.6834C1.87522 11.7174 1.66667 10.6918 1.66667 9.60666C1.66667 8.5083 1.87522 7.47954 2.29234 6.52039C2.70892 5.5607 3.27796 4.72039 3.99944 3.99944C4.72039 3.27796 5.56388 2.70866 6.52992 2.29154C7.49595 1.87496 8.52153 1.66666 9.60667 1.66666C10.705 1.66666 11.7338 1.87496 12.6929 2.29154C13.6526 2.70866 14.4929 3.27796 15.2139 3.99944C15.9354 4.72039 16.5044 5.5607 16.921 6.52039C17.3381 7.47954 17.5467 8.5083 17.5467 9.60666V10.758C17.5467 11.5387 17.2788 12.2036 16.7431 12.7525C16.2069 13.3019 15.5484 13.5767 14.7677 13.5767C14.2913 13.5767 13.848 13.4708 13.4377 13.2591C13.0275 13.0473 12.69 12.7694 12.4254 12.4254C12.0681 12.7827 11.648 13.064 11.1653 13.2694C10.682 13.4742 10.1625 13.5767 9.60667 13.5767C8.5083 13.5767 7.57217 13.1895 6.79829 12.415C6.02387 11.6412 5.63667 10.705 5.63667 9.60666C5.63667 8.5083 6.02387 7.57191 6.79829 6.79749C7.57217 6.02361 8.5083 5.63666 9.60667 5.63666C10.705 5.63666 11.6414 6.02361 12.4158 6.79749C13.1897 7.57191 13.5767 8.5083 13.5767 9.60666V10.758C13.5767 11.1417 13.6958 11.4427 13.934 11.6607C14.1722 11.8794 14.4501 11.9887 14.7677 11.9887C15.0853 11.9887 15.3632 11.8794 15.6014 11.6607C15.8396 11.4427 15.9587 11.1417 15.9587 10.758V9.60666C15.9587 7.8731 15.3333 6.38091 14.0824 5.13009C12.8322 3.87981 11.3402 3.25466 9.60667 3.25466C7.8731 3.25466 6.38091 3.87981 5.13009 5.13009C3.87981 6.38091 3.25467 7.8731 3.25467 9.60666C3.25467 11.3402 3.87981 12.8322 5.13009 14.0824C6.38091 15.3333 7.8731 15.9587 9.60667 15.9587H13.5767V17.5467H9.60667ZM9.60667 11.9887C10.2683 11.9887 10.8307 11.7571 11.2939 11.2939C11.7571 10.8307 11.9887 10.2683 11.9887 9.60666C11.9887 8.945 11.7571 8.38258 11.2939 7.91941C10.8307 7.45625 10.2683 7.22466 9.60667 7.22466C8.945 7.22466 8.38258 7.45625 7.91942 7.91941C7.45625 8.38258 7.22467 8.945 7.22467 9.60666C7.22467 10.2683 7.45625 10.8307 7.91942 11.2939C8.38258 11.7571 8.945 11.9887 9.60667 11.9887Z" fill="white"/>
</svg>
