<svg width="20" height="20" viewBox="0 0 20 20" fill="none" xmlns="http://www.w3.org/2000/svg">
<path d="M12.9948 17.5778C12.7838 17.5778 12.5815 17.4939 12.4323 17.3448C12.2831 17.1956 12.1993 16.9932 12.1993 16.7822V14.7139C12.224 14.476 12.1986 14.2355 12.1246 14.008C12.0506 13.7806 11.9297 13.5711 11.7697 13.3933C11.6707 13.2859 11.6031 13.1533 11.5745 13.01C11.5459 12.8667 11.5572 12.7183 11.6074 12.5811C11.6575 12.4439 11.7444 12.3231 11.8587 12.232C11.9729 12.1409 12.11 12.0831 12.255 12.0648C14.1961 11.8341 15.986 11.2136 15.986 7.84852C15.9866 7.22012 15.8011 6.60561 15.453 6.08247C15.1317 5.60088 15.0144 5.01159 15.1268 4.44369C15.1985 4.07323 15.1985 3.69246 15.1268 3.322C14.5311 3.52341 13.9703 3.81592 13.4642 4.18912C13.3685 4.25707 13.259 4.30301 13.1434 4.32364C13.0279 4.34427 12.9092 4.33908 12.796 4.30845C11.3603 3.90278 9.84033 3.90278 8.40467 4.30845C8.29138 4.33908 8.17272 4.34427 8.05719 4.32364C7.94166 4.30301 7.83212 4.25707 7.73643 4.18912C7.22725 3.8116 6.66044 3.51879 6.05788 3.322C5.98223 3.69207 5.98223 4.07362 6.05788 4.44369C6.16217 5.01873 6.03956 5.61182 5.71581 6.09838C5.36917 6.62519 5.18392 7.24176 5.18281 7.87239C5.18281 10.967 6.67839 11.7943 8.92176 12.0807C9.06856 12.0989 9.20737 12.1577 9.3226 12.2504C9.43783 12.3432 9.52492 12.4662 9.57409 12.6057C9.62034 12.7411 9.62924 12.8865 9.59984 13.0265C9.57044 13.1665 9.50383 13.2959 9.40703 13.4013C9.2523 13.5667 9.13354 13.7623 9.05823 13.9759C8.98292 14.1895 8.95271 14.4164 8.96949 14.6423V16.7822C8.96949 16.9932 8.88568 17.1956 8.73649 17.3448C8.5873 17.4939 8.38496 17.5778 8.17397 17.5778C7.96299 17.5778 7.76064 17.4939 7.61145 17.3448C7.46226 17.1956 7.37845 16.9932 7.37845 16.7822V16.3288C6.59674 16.4187 5.80493 16.3139 5.07349 16.0239C4.34205 15.7338 3.69367 15.2674 3.18605 14.6661C2.92512 14.3769 2.61207 14.1394 2.26325 13.9661C2.16191 13.94 2.06671 13.8941 1.98308 13.8312C1.89946 13.7683 1.82904 13.6896 1.77585 13.5994C1.72267 13.5093 1.68775 13.4096 1.6731 13.306C1.65845 13.2024 1.66435 13.0969 1.69047 12.9955C1.71659 12.8942 1.76241 12.799 1.82532 12.7154C1.88823 12.6318 1.96699 12.5613 2.05711 12.5082C2.14723 12.455 2.24695 12.4201 2.35057 12.4054C2.45418 12.3908 2.55967 12.3967 2.66101 12.4228C3.27296 12.6457 3.81976 13.0175 4.25205 13.5047C5.04757 14.3002 5.84309 15.0003 7.35458 14.7139C7.32801 14.2868 7.39031 13.8588 7.53755 13.457C5.89878 13.0433 3.55995 11.8659 3.55995 7.8883C3.55785 6.94611 3.83465 6.02437 4.35547 5.23921C4.45221 5.09427 4.48925 4.91758 4.45889 4.74599C4.29813 3.88728 4.38931 3.0004 4.72141 2.19236C4.76653 2.08462 4.83483 1.98814 4.92145 1.90977C5.00807 1.8314 5.11088 1.77307 5.22259 1.73892C5.49306 1.65936 6.4636 1.50026 8.30126 2.69354C9.78886 2.33556 11.3402 2.33556 12.8278 2.69354C14.6654 1.50026 15.636 1.65141 15.8985 1.73892C16.0102 1.77307 16.113 1.8314 16.1996 1.90977C16.2862 1.98814 16.3545 2.08462 16.3997 2.19236C16.7324 3.00303 16.8236 3.89264 16.6622 4.75394C16.6459 4.83155 16.6453 4.91162 16.6603 4.98948C16.6753 5.06733 16.7057 5.14142 16.7497 5.20739C17.272 5.99481 17.5489 6.91953 17.5452 7.86443C17.5452 11.8977 15.2223 13.0671 13.5676 13.4331C13.7134 13.86 13.7729 14.3115 13.7426 14.7616V16.7822C13.743 16.9852 13.6658 17.1806 13.5267 17.3285C13.3877 17.4764 13.1974 17.5656 12.9948 17.5778Z" fill="white"/>
</svg>
