<svg width="20" height="20" viewBox="0 0 20 20" fill="none" xmlns="http://www.w3.org/2000/svg">
<path d="M9.71314 7.48994C10.5453 6.63968 11.6287 6.08343 12.8891 6.08343C14.2128 6.08343 15.4822 6.60925 16.4182 7.54522C17.3542 8.48118 17.88 9.75063 17.88 11.0743V17.88H16.0651V11.0743C16.0651 10.232 15.7305 9.42413 15.1349 8.82851C14.5393 8.2329 13.7315 7.89829 12.8891 7.89829C12.0468 7.89829 11.239 8.2329 10.6434 8.82851C10.0478 9.42413 9.71314 10.232 9.71314 11.0743V17.88H7.89829V6.53714H9.71314V7.48994ZM3.36114 4.72229C3.00015 4.72229 2.65393 4.57888 2.39867 4.32362C2.14341 4.06835 2 3.72214 2 3.36114C2 3.00015 2.14341 2.65393 2.39867 2.39867C2.65393 2.14341 3.00015 2 3.36114 2C3.72214 2 4.06835 2.14341 4.32362 2.39867C4.57888 2.65393 4.72229 3.00015 4.72229 3.36114C4.72229 3.72214 4.57888 4.06835 4.32362 4.32362C4.06835 4.57888 3.72214 4.72229 3.36114 4.72229ZM2.45371 6.53714H4.26857V17.88H2.45371V6.53714Z" fill="white"/>
</svg>
