<svg width="24" height="24" viewBox="0 0 24 24" fill="none" xmlns="http://www.w3.org/2000/svg">
<circle cx="12" cy="12" r="11.25" stroke="#6A6C6E" stroke-width="1.5"/>
<path d="M21.327 12.285C20.427 12.1327 19.4895 12.033 18.7275 12.006L18.5925 12.0015C18.624 11.934 18.6472 11.889 18.6547 11.8815C18.6712 11.868 18.6847 11.811 18.6862 11.7555C18.6862 11.7255 18.6997 11.625 18.7207 11.493C18.9277 11.5005 19.2007 11.5065 19.5007 11.508C20.6527 11.5177 21.8587 11.6107 22.686 11.757C23.1787 11.844 23.3415 11.841 22.9785 11.7525C22.6095 11.6625 21.5175 11.532 20.6475 11.475C20.0095 11.4366 19.3703 11.4211 18.7312 11.4285C18.7462 11.343 18.7612 11.2485 18.7792 11.151C18.8482 10.773 18.8715 10.3935 18.873 9.63825C18.8745 8.46825 18.8115 8.14575 18.4305 7.37025C18.2866 7.07146 18.1037 6.79305 17.8867 6.54225C18.072 5.99475 18.0667 5.14875 17.8755 4.40625C17.718 3.79725 17.6617 3.75825 17.1105 3.87525C16.6417 3.975 16.2667 4.11075 15.786 4.353C15.558 4.46775 15.2445 4.6455 15.0172 4.7865C14.4247 4.57875 13.812 4.4415 13.1572 4.3665C12.495 4.2915 10.8697 4.3335 10.2922 4.44C9.72975 4.545 9.22125 4.6725 8.76225 4.8225C8.532 4.6815 8.19975 4.49025 7.96125 4.37025C7.47825 4.12725 7.10325 3.99225 6.63375 3.8925C6.08325 3.77475 6.02625 3.8145 5.86875 4.4235C5.67375 5.17575 5.67225 6.036 5.865 6.582C5.8875 6.64425 5.901 6.6885 5.90625 6.723C5.12475 7.707 4.86975 8.808 5.03925 10.3455C5.08425 10.7452 5.15175 11.1127 5.24775 11.4495C4.749 11.4465 4.04025 11.4645 3.52725 11.4975C2.65575 11.5552 1.56375 11.685 1.19475 11.775C0.832498 11.8627 0.993748 11.865 1.48725 11.7795C2.3145 11.634 3.52125 11.5395 4.67325 11.532C4.89075 11.5305 5.09325 11.526 5.26875 11.5215C5.32125 11.6992 5.38125 11.8687 5.44875 12.03H5.445C4.68375 12.057 3.747 12.1575 2.84625 12.3075C2.17125 12.4215 1.17375 12.648 1.05675 12.7125C0.933748 12.7815 1.03425 12.7665 1.557 12.6337C2.51175 12.3922 3.753 12.2062 5.2905 12.0787L5.463 12.0637C5.793 12.8287 6.30075 13.4137 7.01925 13.8712C7.45875 14.1502 8.163 14.4375 8.51775 14.4825C8.61525 14.4945 8.89875 14.553 9.14775 14.6115C9.3975 14.67 9.88575 14.7577 10.2322 14.808H10.2397L10.2217 14.82C9.80175 15.0375 9.52875 15.378 9.34425 15.9127C9.26175 15.9375 9.15975 15.9712 9.04875 16.0102C8.65125 16.1452 8.4975 16.1722 8.09625 16.1752C7.6785 16.1782 7.57875 16.1602 7.33125 16.0432C6.94745 15.8545 6.62614 15.5593 6.40575 15.1927C6.03075 14.5732 5.3805 14.1352 4.83825 14.1352C4.37625 14.1352 4.2885 14.3227 4.623 14.5965C5.127 15.009 5.5035 15.429 5.658 15.75L5.95575 16.368C6.03825 16.5382 6.21225 16.7692 6.37875 16.929C6.77025 17.3025 7.14825 17.481 7.71225 17.565C8.09025 17.6205 8.18325 17.6205 8.6295 17.5635C8.84475 17.5372 9.027 17.5065 9.189 17.4682V18.1087C9.189 19.4332 9.174 19.8592 9.1215 19.9837C9.02175 20.2207 8.799 20.4637 8.58375 20.574C8.3685 20.6842 8.30175 20.805 8.3925 20.916C8.4435 20.976 8.54025 20.9865 8.865 20.9655C9.4815 20.928 9.91725 20.6992 10.14 20.298C10.2105 20.1682 10.227 19.908 10.2495 18.558C10.2735 17.094 10.284 16.953 10.3792 16.743C10.4362 16.6192 10.5195 16.4842 10.5667 16.4475C10.644 16.383 10.6492 16.5105 10.6492 18.2625C10.6492 20.196 10.629 20.43 10.4355 20.8012C10.392 20.886 10.3095 20.9962 10.2517 21.0487C10.1505 21.141 10.1077 21.3772 10.1782 21.4485C10.2945 21.564 10.8772 21.3825 11.1952 21.132C11.7367 20.703 11.8012 20.3482 11.8057 17.787L11.808 16.2832L11.973 16.2982L12.1365 16.3132L12.1635 18.2782C12.1935 20.4922 12.198 20.5245 12.5745 20.952C12.7882 21.1935 13.0035 21.327 13.3545 21.432C13.8225 21.5722 13.9635 21.3547 13.6485 20.9775C13.3057 20.5665 13.2885 20.4097 13.308 17.9812C13.3207 16.4242 13.3207 16.4242 13.4205 16.515C13.6327 16.707 13.6732 17.022 13.6732 18.4822C13.6732 20.2957 13.7257 20.4682 14.3655 20.7847C14.6655 20.931 14.748 20.9497 15.132 20.9497C15.54 20.952 15.5647 20.946 15.5797 20.8395C15.5925 20.7532 15.5422 20.6947 15.3517 20.5785C15.1166 20.4397 14.9309 20.2306 14.8207 19.9807C14.7795 19.8862 14.7517 19.2622 14.733 17.9782C14.706 16.1827 14.7 16.101 14.5882 15.8197C14.4382 15.4417 14.2072 15.1432 13.9155 14.9452C13.8405 14.8957 13.764 14.8552 13.6657 14.8237C13.7857 14.8117 13.9035 14.799 14.0167 14.7825C15.1957 14.625 15.819 14.4945 16.3192 14.301C17.3767 13.8937 18.093 13.2172 18.4807 12.258C18.5152 12.1725 18.5497 12.0915 18.5782 12.0255L18.8782 12.051C20.4157 12.1807 21.657 12.366 22.6117 12.6082C23.1352 12.7417 23.2342 12.7582 23.1127 12.6877C22.9987 12.624 22.0012 12.3982 21.3262 12.285H21.327ZM16.8165 12.261C16.6417 12.645 16.1542 13.1385 15.7605 13.332C15.372 13.524 14.763 13.6695 14.073 13.74C13.6005 13.788 10.9702 13.8022 10.536 13.7595C9.09825 13.6185 8.2935 13.3417 7.69875 12.7875C7.13625 12.261 6.87375 11.5462 6.91875 10.6665C6.94875 10.116 7.0815 9.77025 7.42875 9.35025C7.74375 8.96775 8.07675 8.7315 8.46825 8.6115C8.79675 8.511 9.80325 8.502 11.1547 8.589C11.7525 8.6265 12.2467 8.6265 12.8437 8.589C14.2582 8.499 15.2025 8.5095 15.5512 8.6175C16.0987 8.787 16.599 9.243 16.899 9.8505C17.034 10.122 17.061 10.2375 17.0805 10.6567C17.1075 11.2342 17.0077 11.847 16.818 12.2602L16.8165 12.261ZM9.684 9.7815C8.87925 9.6405 8.4195 11.019 9.03675 11.7217C9.32925 12.0547 9.5895 12.1095 9.91425 11.907C10.2165 11.7195 10.3792 11.367 10.3792 10.911C10.3792 10.302 10.1032 9.855 9.68325 9.78L9.684 9.7815ZM14.5687 9.864C13.764 9.723 13.3035 11.0992 13.9207 11.8035C14.2155 12.1372 14.4757 12.1935 14.8012 11.9887C15.1012 11.8012 15.2662 11.4487 15.2662 10.9927C15.2662 10.3867 14.9887 9.93825 14.5687 9.864ZM12.4042 12.573C12.3862 12.6285 12.3022 12.711 12.2167 12.7552C12.003 12.8655 11.8492 12.8272 11.622 12.6202C11.4817 12.4942 11.418 12.4275 11.3745 12.5602C11.3355 12.6832 11.5845 12.93 11.778 13.0057C11.955 13.077 12.0817 13.0792 12.273 12.9982C12.4642 12.9195 12.6307 12.7057 12.6307 12.567C12.6307 12.438 12.4455 12.444 12.4035 12.5745L12.4042 12.573ZM12.1657 12.1417C12.288 12.033 12.3157 11.8117 12.1987 11.6932C12.0817 11.5747 11.844 11.5935 11.751 11.7255C11.6422 11.88 11.7 11.9977 11.7772 12.123C11.8972 12.216 12.0585 12.2355 12.165 12.141L12.1657 12.1417Z" fill="#6A6C6E"/>
</svg>
