<svg width="50" height="104" viewBox="0 0 50 104" fill="none" xmlns="http://www.w3.org/2000/svg">
<g clip-path="url(#clip0_311_18)">
<rect x="18.6461" y="66.2676" width="13.4887" height="20.233" fill="#BF0A30"/>
<path d="M15.167 68.8805C17.5049 66.4511 19.8593 65.2076 22.2303 65.1499C20.8797 66.5172 19.9742 67.8923 19.5136 69.275C19.053 70.6578 18.8501 72.4729 18.9049 74.7203C18.9301 75.7576 19.4051 77.2473 20.3297 79.1894C21.2543 81.1315 22.1795 82.845 23.1053 84.3299C24.0311 85.8148 24.4931 86.5202 24.4913 86.4461C24.5347 86.1979 24.5948 85.8752 24.6716 85.4779C24.7484 85.0807 24.9523 84.322 25.2834 83.2019C25.6144 82.0818 25.9905 81.0347 26.4116 80.0607C26.8326 79.0866 27.4316 78.0588 28.2084 76.9773C28.9852 75.8957 29.8356 75.0472 30.7597 74.4316C31.5133 73.919 31.9008 73.0878 31.9222 71.9382C31.9436 70.7886 31.7048 69.6082 31.2058 68.3971C30.7068 67.186 30.0859 66.0458 29.3432 64.9766C30.6769 64.9441 32.8851 66.3236 35.968 69.1151C37.0035 70.029 37.7765 71.0728 38.2869 72.2465C38.7974 73.4203 39.0641 74.4764 39.0869 75.4149C39.1254 76.9955 38.7272 78.6548 37.8923 80.3926C37.0573 82.1305 35.9149 83.6719 34.4649 85.017C33.233 86.1837 32.2434 87.4064 31.4961 88.6849C30.7488 89.9634 30.2777 91.1673 30.0828 92.2964C29.8879 93.4256 29.8222 94.533 29.8857 95.6188C29.9493 96.7046 30.1397 97.6761 30.4572 98.5333C30.7746 99.3905 31.0896 100.149 31.4022 100.809C31.7148 101.468 31.9988 101.968 32.2542 102.308L32.6382 102.854C32.3142 102.739 31.8836 102.564 31.3466 102.33C30.8096 102.096 29.7714 101.577 28.2321 100.775C26.6927 99.9718 25.2327 99.1301 23.8521 98.2494C22.4715 97.3687 20.9609 96.2255 19.3204 94.8198C17.6798 93.4141 16.3226 91.9706 15.2486 90.4893C13.7656 88.4496 12.6178 86.2226 11.8053 83.8082C10.9927 81.3938 10.6001 79.2226 10.6272 77.2943C10.6526 76.3052 10.9836 75.1851 11.6203 73.934C12.2571 72.6829 12.875 71.6732 13.4741 70.9049C14.0732 70.1365 14.6375 69.4617 15.167 68.8805Z" fill="#CE5C17"/>
</g>
<path d="M30.3054 60.9087V72.7987H20.7934V65.6647H18.4154C16.5234 65.6647 14.7088 64.9131 13.3709 63.5752C12.033 62.2373 11.2814 60.4228 11.2814 58.5307V51.3967C11.2814 50.7661 11.532 50.1612 11.9779 49.7152C12.4239 49.2693 13.0287 49.0187 13.6594 49.0187C14.2901 49.0187 14.895 49.2693 15.3409 49.7152C15.7869 50.1612 16.0374 50.7661 16.0374 51.3967V58.5307C16.0374 59.8624 17.1075 60.9087 18.4154 60.9087H20.7934V37.1288C20.7934 35.8674 21.2945 34.6577 22.1864 33.7658C23.0783 32.8739 24.288 32.3728 25.5494 32.3728C26.8107 32.3728 28.0204 32.8739 28.9124 33.7658C29.8043 34.6577 30.3054 35.8674 30.3054 37.1288V56.1527H32.6833C33.314 56.1527 33.9189 55.9022 34.3648 55.4562C34.8108 55.0103 35.0613 54.4054 35.0613 53.7747V49.0187C35.0613 48.3881 35.3119 47.7832 35.7578 47.3372C36.2038 46.8913 36.8086 46.6408 37.4393 46.6408C38.07 46.6408 38.6749 46.8913 39.1208 47.3372C39.5668 47.7832 39.8173 48.3881 39.8173 49.0187V53.7747C39.8173 55.6668 39.0657 57.4813 37.7278 58.8192C36.3899 60.1571 34.5754 60.9087 32.6833 60.9087H30.3054Z" fill="#FED700"/>
<rect x="26.4868" y="18.6389" width="13.2599" height="9.63463" fill="#BF0A30"/>
<path d="M32.4275 26.8415C32.6004 26.8415 32.7679 26.8136 32.9185 26.7578L32.673 28.471H31.2054L32.0703 26.8024C32.1875 26.8304 32.3047 26.8415 32.4275 26.8415ZM8.93415 10.5915C9.63728 10.5915 10.3181 10.6752 10.971 10.8259C12.1652 8.68303 14.4475 7.23772 17.0703 7.23772C17.4554 7.23772 17.8292 7.2712 18.1975 7.32701C20.173 3.00781 24.5257 0.0111614 29.5759 0.0111614C35.8426 0.0111614 41.0324 4.62054 41.942 10.6362C46.4676 11.077 50 14.8884 50 19.5312C50 24.4643 46.0045 28.4654 41.0714 28.471H38.2812L37.5446 26.9308C39.0067 26.4676 39.9609 25.3125 39.7266 24.2076C39.4699 23.0022 37.8962 22.3158 36.2054 22.673C34.9275 22.9464 33.9509 23.7388 33.6663 24.6317C33.5364 24.4211 33.3551 24.2471 33.1393 24.126C32.9235 24.0049 32.6804 23.9408 32.433 23.9397H32.4219C32.4665 23.7612 32.4888 23.577 32.4888 23.3873C32.4888 22.2656 31.6629 21.3393 30.5859 21.1775V19.76C30.5859 19.5145 30.385 19.3136 30.1395 19.3136C29.894 19.3136 29.6931 19.5145 29.6931 19.76V21.2277C29.4364 21.2946 29.202 21.4062 28.99 21.5513L27.9018 20.3571C27.7344 20.173 27.4554 20.1618 27.2712 20.3292C27.0871 20.4966 27.0759 20.7757 27.2433 20.9598L28.3594 22.1875L28.3705 22.1987C28.1227 22.5898 28.0026 23.0483 28.0269 23.5108C28.0513 23.9732 28.2188 24.4166 28.5064 24.7795C28.7939 25.1425 29.1872 25.407 29.6318 25.5365C30.0764 25.666 30.5503 25.654 30.9877 25.5022C31.01 25.8147 31.1328 26.0993 31.3225 26.3281L30.2065 28.471H8.70535V28.4654C3.87835 28.3426 -1.6293e-06 24.3917 -1.6293e-06 19.5312C-1.6293e-06 14.5926 4.00111 10.5915 8.93415 10.5915ZM34.6987 26.7969L34.9386 28.471H33.577L33.9063 26.1551C34.1016 26.4118 34.3694 26.6295 34.6987 26.7969ZM9.06808 2.67857C9.06808 3.38897 8.78587 4.07028 8.28354 4.57261C7.78121 5.07494 7.09991 5.35714 6.38951 5.35714C5.67911 5.35714 4.99781 5.07494 4.49548 4.57261C3.99315 4.07028 3.71094 3.38897 3.71094 2.67857C3.71094 1.96817 3.99315 1.28686 4.49548 0.784535C4.99781 0.282205 5.67911 0 6.38951 0C7.09991 0 7.78121 0.282205 8.28354 0.784535C8.78587 1.28686 9.06808 1.96817 9.06808 2.67857ZM12.7344 6.09933C12.7344 6.27521 12.6997 6.44936 12.6324 6.61185C12.5651 6.77434 12.4665 6.92198 12.3421 7.04635C12.2177 7.17071 12.0701 7.26936 11.9076 7.33667C11.7451 7.40397 11.571 7.43861 11.3951 7.43861C11.2192 7.43861 11.0451 7.40397 10.8826 7.33667C10.7201 7.26936 10.5724 7.17071 10.4481 7.04635C10.3237 6.92198 10.2251 6.77434 10.1578 6.61185C10.0904 6.44936 10.0558 6.27521 10.0558 6.09933C10.0558 5.92345 10.0904 5.7493 10.1578 5.58681C10.2251 5.42432 10.3237 5.27668 10.4481 5.15231C10.5724 5.02795 10.7201 4.9293 10.8826 4.86199C11.0451 4.79469 11.2192 4.76004 11.3951 4.76004C11.571 4.76004 11.7451 4.79469 11.9076 4.86199C12.0701 4.9293 12.2177 5.02795 12.3421 5.15231C12.4665 5.27668 12.5651 5.42432 12.6324 5.58681C12.6997 5.7493 12.7344 5.92345 12.7344 6.09933ZM36.6406 27.115L37.2879 28.471H35.8371L35.6417 27.0926C35.9598 27.1373 36.2946 27.1484 36.6406 27.115Z" fill="#002868"/>
<defs>
<clipPath id="clip0_311_18">
<rect width="28.5359" height="37.9467" fill="#6A6C6E" transform="translate(39.752 102.681) rotate(178.605)"/>
</clipPath>
</defs>
</svg>
