<svg width="24" height="24" viewBox="0 0 24 24" fill="none" xmlns="http://www.w3.org/2000/svg">
<circle cx="12" cy="12" r="11.25" stroke="#6A6C6E" stroke-width="1.5"/>
<path d="M18 13.0308V17.4672H15.4284V13.3272C15.4284 12.288 15.0564 11.5788 14.1252 11.5788C13.4148 11.5788 12.9912 12.0564 12.8052 12.5196C12.738 12.6852 12.72 12.9156 12.72 13.146V17.4672H10.1472C10.1472 17.4672 10.182 10.4568 10.1472 9.7308H12.72V10.8264L12.7032 10.8516H12.72V10.8276C13.062 10.2996 13.6716 9.5484 15.0384 9.5484C16.7304 9.5484 18 10.6548 18 13.0308V13.0308ZM7.4556 6C6.576 6 6 6.5784 6 7.3368C6 8.0808 6.5592 8.6748 7.422 8.6748H7.4388C8.3364 8.6748 8.8944 8.0796 8.8944 7.3368C8.8776 6.5784 8.3364 6 7.4556 6V6ZM6.1524 17.4672H8.7252V9.7308H6.1524V17.4672V17.4672Z" fill="#6A6C6E"/>
</svg>
