<svg width="20" height="20" viewBox="0 0 20 20" fill="none" xmlns="http://www.w3.org/2000/svg">
<path d="M13.75 7.5C13.75 8.49456 13.3549 9.44839 12.6517 10.1517C11.9484 10.8549 10.9946 11.25 10 11.25C9.00544 11.25 8.05161 10.8549 7.34835 10.1517C6.64509 9.44839 6.25 8.49456 6.25 7.5C6.25 6.50544 6.64509 5.55161 7.34835 4.84835C8.05161 4.14509 9.00544 3.75 10 3.75C10.9946 3.75 11.9484 4.14509 12.6517 4.84835C13.3549 5.55161 13.75 6.50544 13.75 7.5V7.5Z" fill="white"/>
<path d="M2.5 0C1.83696 0 1.20107 0.263392 0.732233 0.732233C0.263392 1.20107 0 1.83696 0 2.5L0 17.5C0 18.163 0.263392 18.7989 0.732233 19.2678C1.20107 19.7366 1.83696 20 2.5 20H17.5C18.163 20 18.7989 19.7366 19.2678 19.2678C19.7366 18.7989 20 18.163 20 17.5V2.5C20 1.83696 19.7366 1.20107 19.2678 0.732233C18.7989 0.263392 18.163 0 17.5 0L2.5 0ZM17.5 1.25C17.8315 1.25 18.1495 1.3817 18.3839 1.61612C18.6183 1.85054 18.75 2.16848 18.75 2.5V17.5C18.75 17.8315 18.6183 18.1495 18.3839 18.3839C18.1495 18.6183 17.8315 18.75 17.5 18.75V17.5C17.5 16.25 16.25 12.5 10 12.5C3.75 12.5 2.5 16.25 2.5 17.5V18.75C2.16848 18.75 1.85054 18.6183 1.61612 18.3839C1.3817 18.1495 1.25 17.8315 1.25 17.5V2.5C1.25 2.16848 1.3817 1.85054 1.61612 1.61612C1.85054 1.3817 2.16848 1.25 2.5 1.25H17.5Z" fill="white"/>
</svg>
