<svg width="21" height="21" viewBox="0 0 21 21" fill="none" xmlns="http://www.w3.org/2000/svg">
<path d="M9.23978 13.05C9.23978 12.7166 9.29693 12.3955 9.40267 12.0974H2.81253C2.53103 12.0972 2.25226 12.1526 1.99216 12.2603C1.73205 12.3679 1.49572 12.5258 1.29667 12.7249C1.09761 12.9239 0.939736 13.1603 0.832066 13.4204C0.724396 13.6805 0.669042 13.9592 0.669167 14.2407V15.1162C0.669167 15.6611 0.840636 16.1926 1.15595 16.6365C2.62487 18.698 5.02925 19.7182 8.28717 19.7182C8.66631 19.7182 9.03306 19.7049 9.38934 19.6773C9.29034 19.3835 9.23983 19.0756 9.23978 18.7656V13.05ZM8.28717 0.670834C8.91266 0.670834 9.53203 0.794033 10.1099 1.0334C10.6878 1.27276 11.2129 1.62361 11.6551 2.0659C12.0974 2.50818 12.4483 3.03326 12.6876 3.61114C12.927 4.18901 13.0502 4.80838 13.0502 5.43387C13.0502 6.05936 12.927 6.67873 12.6876 7.25661C12.4483 7.83449 12.0974 8.35956 11.6551 8.80185C11.2129 9.24414 10.6878 9.59498 10.1099 9.83435C9.53203 10.0737 8.91266 10.1969 8.28717 10.1969C7.02393 10.1969 5.81244 9.69509 4.91919 8.80185C4.02595 7.90861 3.52413 6.69711 3.52413 5.43387C3.52413 4.17064 4.02595 2.95914 4.91919 2.0659C5.81244 1.17265 7.02393 0.670834 8.28717 0.670834V0.670834ZM10.1924 13.05C10.1924 12.5447 10.3931 12.0601 10.7504 11.7028C11.1077 11.3455 11.5923 11.1448 12.0976 11.1448H18.7659C19.2712 11.1448 19.7558 11.3455 20.113 11.7028C20.4703 12.0601 20.6711 12.5447 20.6711 13.05V18.7656C20.6711 19.2709 20.4703 19.7555 20.113 20.1128C19.7558 20.4701 19.2712 20.6708 18.7659 20.6708H12.0976C11.5923 20.6708 11.1077 20.4701 10.7504 20.1128C10.3931 19.7555 10.1924 19.2709 10.1924 18.7656V13.05ZM12.5739 14.0026C12.4476 14.0026 12.3264 14.0528 12.2371 14.1421C12.1478 14.2314 12.0976 14.3526 12.0976 14.4789C12.0976 14.6052 12.1478 14.7264 12.2371 14.8157C12.3264 14.905 12.4476 14.9552 12.5739 14.9552H18.2896C18.4159 14.9552 18.537 14.905 18.6264 14.8157C18.7157 14.7264 18.7659 14.6052 18.7659 14.4789C18.7659 14.3526 18.7157 14.2314 18.6264 14.1421C18.537 14.0528 18.4159 14.0026 18.2896 14.0026H12.5739ZM12.5739 16.8604C12.4476 16.8604 12.3264 16.9106 12.2371 16.9999C12.1478 17.0892 12.0976 17.2104 12.0976 17.3367C12.0976 17.463 12.1478 17.5842 12.2371 17.6735C12.3264 17.7628 12.4476 17.813 12.5739 17.813H18.2896C18.4159 17.813 18.537 17.7628 18.6264 17.6735C18.7157 17.5842 18.7659 17.463 18.7659 17.3367C18.7659 17.2104 18.7157 17.0892 18.6264 16.9999C18.537 16.9106 18.4159 16.8604 18.2896 16.8604H12.5739Z" fill="white"/>
</svg>
