<svg width="20" height="20" viewBox="0 0 20 20" fill="none" xmlns="http://www.w3.org/2000/svg">
<path d="M13.3622 6.87931C13.3622 7.68826 13.0409 8.46408 12.4689 9.03609C11.8968 9.6081 11.121 9.92946 10.3121 9.92946C9.50313 9.92946 8.72732 9.6081 8.1553 9.03609C7.58329 8.46408 7.26194 7.68826 7.26194 6.87931C7.26194 6.07036 7.58329 5.29455 8.1553 4.72254C8.72732 4.15052 9.50313 3.82917 10.3121 3.82917C11.121 3.82917 11.8968 4.15052 12.4689 4.72254C13.0409 5.29455 13.3622 6.07036 13.3622 6.87931V6.87931ZM13.4366 10.6285C14.2069 9.98636 14.7606 9.12248 15.0224 8.15444C15.2843 7.1864 15.2415 6.16119 14.9 5.21831C14.5585 4.27542 13.9348 3.46063 13.1138 2.88478C12.2928 2.30894 11.3143 2 10.3115 2C9.30864 2 8.33016 2.30894 7.50914 2.88478C6.68813 3.46063 6.06444 4.27542 5.72294 5.21831C5.38143 6.16119 5.33869 7.1864 5.60052 8.15444C5.86236 9.12248 6.41606 9.98636 7.18629 10.6285C5.98525 11.1964 4.96124 12.0801 4.22388 13.1852C3.48651 14.2903 3.06355 15.5751 3.00028 16.9021C2.99439 17.1412 3.08236 17.3731 3.24535 17.5482C3.40835 17.7232 3.6334 17.8275 3.87233 17.8387C4.11126 17.8498 4.34506 17.767 4.52366 17.6079C4.70227 17.4488 4.81149 17.2261 4.82792 16.9875C4.89443 15.5777 5.50127 14.2478 6.52246 13.2736C7.54366 12.2995 8.90077 11.756 10.3121 11.756C11.7234 11.756 13.0805 12.2995 14.1017 13.2736C15.1229 14.2478 15.7297 15.5777 15.7962 16.9875C15.7992 17.1093 15.8265 17.2293 15.8766 17.3404C15.9266 17.4516 15.9983 17.5516 16.0874 17.6346C16.1766 17.7177 16.2815 17.7821 16.3959 17.824C16.5103 17.866 16.632 17.8847 16.7537 17.879C16.8754 17.8733 16.9948 17.8434 17.1048 17.7909C17.2148 17.7385 17.3132 17.6646 17.3943 17.5736C17.4753 17.4826 17.5374 17.3763 17.5768 17.261C17.6163 17.1457 17.6323 17.0237 17.6239 16.9021C17.5604 15.575 17.1372 14.2902 16.3996 13.1851C15.662 12.08 14.6378 11.1963 13.4366 10.6285V10.6285Z" fill="white"/>
</svg>
